# xmcd CD database file
#
# Track frame offsets:
#	150
#	22932
#	43320
#	67491
#	93138
#	109161
#	136598
#	153704
#	167875
#
# Disc length: 2539 seconds
#
# Revision: 0
# Processed by: cddbd v1.5.2PL0 Copyright (c) Steve Scherf et al.
# Submitted via: CDex 1.51
#
DISCID=7809e909
DTITLE=Jean-Marie Ecay - Hamaika
DYEAR=2016
DGENRE=Jazz
TTITLE0=Body And Soul
TTITLE1=Funk In Deep Freeze
TTITLE2=Hamaika
TTITLE3=Bobo
TTITLE4=Tricotism
TTITLE5=Dolphin Dance
TTITLE6=Juggling In Central Park
TTITLE7=Iris
TTITLE8=Fee Fi Fo Fum
EXTD=YEAR: 2016
EXTT0=
EXTT1=
EXTT2=
EXTT3=
EXTT4=
EXTT5=
EXTT6=
EXTT7=
EXTT8=
PLAYORDER=
